<svg xmlns="http://www.w3.org/2000/svg" width="1024" height="126" viewBox="0 0 1024 126"><defs><style>.a{fill:#013b4f;}.b{fill:#022f3c;}.c{fill:#012d38;}.d{fill:#022d3a;}.e{fill:#012a35;}.f{fill:#00323e;}.g{fill:#023b4d;}.h{fill:#003340;}.i{fill:#012f3b;}.j{fill:#011e24;}.k{fill:#021619;}.l{fill:#003643;}.m{fill:#002e3c;}.n{fill:#00252d;}.o{fill:#011b22;}.p{fill:#011116;}.q{fill:#01171b;}.r{fill:#002128;}.s{fill:#001e24;}.t{fill:#012025;}.u{fill:#001317;}.v{fill:#010202;}.w{fill:#000a0c;}</style></defs><title>bg01</title><rect class="a" y="102" width="1024" height="6"/><rect class="b" y="97" width="1024" height="5"/><rect class="c" y="92" width="1024" height="5"/><rect class="d" y="87" width="1024" height="5"/><rect class="e" y="83" width="1024" height="4"/><rect class="f" y="79" width="1024" height="4"/><rect class="g" y="76" width="1024" height="3"/><rect class="h" y="108" width="1024" height="5"/><rect class="i" y="113" width="1024" height="5"/><rect class="j" y="118" width="1024" height="4"/><rect class="k" y="122" width="1024" height="4"/><rect class="l" y="72" width="1024" height="4"/><rect class="m" y="67" width="1024" height="5"/><rect class="n" y="63" width="1024" height="4"/><rect class="o" y="57" width="1024" height="6"/><rect class="p" y="51" width="1024" height="6"/><rect class="q" y="44" width="1024" height="7"/><rect class="r" y="39" width="1024" height="5"/><rect class="s" y="32" width="1024" height="7"/><rect class="b" y="27" width="1024" height="5"/><rect class="t" y="22" width="1024" height="5"/><rect class="u" y="17" width="1024" height="5"/><rect class="v" y="10" width="1024" height="7"/><rect class="w" width="1024" height="10"/></svg>