<svg xmlns="http://www.w3.org/2000/svg" width="1024" height="126" viewBox="0 0 1024 126"><defs><style>.a{fill:#004765;}.b{fill:#035879;}.c{fill:#0f4b71;}.d{fill:#007a98;}.e{fill:#006d8c;}.f{fill:#004661;}.g{fill:#012730;}.h{fill:#01222b;}.i{fill:#002832;}.j{fill:#003643;}.k{fill:#00394e;}.l{fill:#03425b;}.m{fill:#002e3c;}.n{fill:#00191e;}.o{fill:#020d11;}.p{fill:#000a0c;}.q{fill:#0b7692;}.r{fill:#004863;}.s{fill:#013f57;}.t{fill:#015472;}.u{fill:#014b66;}</style></defs><title>bg02</title><rect class="a" y="86" width="1024" height="2"/><rect class="b" y="84" width="1024" height="2"/><rect class="c" y="82" width="1024" height="2"/><rect class="d" y="77" width="1024" height="5"/><rect class="e" y="73" width="1024" height="4"/><rect class="f" y="67" width="1024" height="6"/><rect class="g" y="59" width="1024" height="8"/><rect class="h" y="54" width="1024" height="5"/><rect class="i" y="47" width="1024" height="7"/><rect class="j" y="40" width="1024" height="7"/><rect class="k" y="33" width="1024" height="7"/><rect class="l" y="29" width="1024" height="4"/><rect class="m" y="26" width="1024" height="3"/><rect class="m" y="26" width="1024" height="3"/><rect class="n" y="22" width="1024" height="4"/><rect class="o" y="15" width="1024" height="7"/><rect class="p" width="1024" height="15"/><rect class="q" y="88" width="1024" height="2"/><rect class="r" y="90" width="1024" height="6"/><rect class="r" y="90" width="1024" height="6"/><rect class="s" y="96" width="1024" height="7"/><rect class="t" y="103" width="1024" height="7"/><rect class="u" y="110" width="1024" height="9"/><rect class="n" y="119" width="1024" height="7"/></svg>