<svg xmlns="http://www.w3.org/2000/svg" width="1024.2" height="130" viewBox="0 0 1024.2 130"><defs><style>.a{fill:#09e8fe;}.b{fill:#20a7df;}.c{fill:#016f93;}.d{fill:#007a9d;}.e{fill:#006082;}.f{fill:#003140;}.g{fill:#013f56;}.h{fill:#01435c;}.i{fill:#03526d;}.j{fill:#014053;}.k{fill:#01222b;}.l{fill:#000d0e;}.m{fill:#00aac3;}.n{fill:#007f9b;}.o{fill:#00abc4;}.p{fill:#02a5c0;}.q{fill:#007a97;}.r{fill:#017e9a;}.s{fill:#00506f;}.t{fill:#0188a5;}.u{fill:#02708d;}.v{fill:#013b4e;}.w{fill:#00252c;}</style></defs><title>bg03</title><rect class="a" y="74" width="1024.2" height="6"/><rect class="b" y="70" width="1024.2" height="4"/><rect class="c" y="66" width="1024.2" height="4"/><rect class="d" y="60" width="1024.2" height="6"/><rect class="e" y="54" width="1024.2" height="6"/><rect class="f" y="50" width="1024.2" height="4"/><rect class="g" y="44" width="1024.2" height="6"/><rect class="h" y="36" width="1024.2" height="8"/><rect class="i" y="32" width="1024.2" height="4"/><rect class="j" y="25" width="1024.2" height="7"/><rect class="k" y="17" width="1024.2" height="8"/><rect class="l" width="1024.2" height="17"/><rect class="m" y="80" width="1024.2" height="3"/><rect class="n" y="83" width="1024.2" height="2"/><rect class="o" y="85" width="1024.2" height="6"/><rect class="p" y="91" width="1024.2" height="5"/><rect class="q" y="96" width="1024.2" height="3"/><rect class="r" y="99" width="1024.2" height="4"/><rect class="s" y="103" width="1024.2" height="3"/><rect class="t" y="106" width="1024.2" height="4"/><rect class="u" y="110" width="1024.2" height="6"/><rect class="v" y="116" width="1024.2" height="7"/><rect class="w" y="123" width="1024.2" height="7"/></svg>