<svg xmlns="http://www.w3.org/2000/svg" width="1024" height="134" viewBox="0 0 1024 134"><defs><style>.a{fill:#01d2ef;}.b{fill:#007aa2;}.c{fill:#01597c;}.d{fill:#00506e;}.e{fill:#003444;}.f{fill:#015675;}.g{fill:#00516e;}.h{fill:#007696;}.i{fill:#024560;}.j{fill:#003f59;}.k{fill:#001e27;}.l{fill:#002833;}.m{fill:#000f14;}.n{fill:#02aec7;}.o{fill:#047b9c;}.p{fill:#02b4cf;}.q{fill:#009eb8;}.r{fill:#00b7cf;}.s{fill:#0090ad;}.t{fill:#01a5c1;}.u{fill:#00859e;}.v{fill:#00415b;}.w{fill:#032b3b;}</style></defs><title>bg04</title><rect class="a" y="74" width="1024" height="8"/><rect class="b" y="68" width="1024" height="6"/><rect class="c" y="61" width="1024" height="7"/><rect class="d" y="55" width="1024" height="6"/><rect class="e" y="52" width="1024" height="3"/><rect class="f" y="46" width="1024" height="6"/><rect class="g" y="38" width="1024" height="8"/><rect class="h" y="35" width="1024" height="3"/><rect class="i" y="27" width="1024" height="8"/><rect class="j" y="23" width="1024" height="4"/><rect class="k" y="20" width="1024" height="3"/><rect class="l" y="15" width="1024" height="5"/><rect class="m" width="1024" height="15"/><rect class="n" y="82" width="1024" height="3"/><rect class="o" y="85" width="1024" height="2"/><rect class="p" y="87" width="1024" height="4"/><rect class="q" y="91" width="1024" height="3"/><rect class="r" y="94" width="1024" height="8"/><rect class="s" y="102" width="1024" height="5"/><rect class="t" y="107" width="1024" height="5"/><rect class="u" y="112" width="1024" height="7"/><rect class="v" y="119" width="1024" height="7"/><rect class="w" y="126" width="1024" height="8"/></svg>