<svg xmlns="http://www.w3.org/2000/svg" width="1024" height="133" viewBox="0 0 1024 133"><defs><style>.a{fill:#009fc3;}.b{fill:#017095;}.c{fill:#002836;}.d{fill:#01435a;}.e{fill:#003343;}.f{fill:#00455d;}.g{fill:#002a36;}.h{fill:#022f3c;}.i{fill:#001f25;}.j{fill:#011013;}.k{fill:#00425d;}.l{fill:#013241;}.m{fill:#012126;}.n{fill:#012e3d;}.o{fill:#02242d;}.p{fill:#013b4d;}.q{fill:#02151b;}.r{fill:#00191f;}.s{fill:#02171b;}.t{fill:#000809;}.u{fill:#010a0d;}</style></defs><title>bg05</title><rect class="a" y="69" width="1024" height="11"/><rect class="b" y="80" width="1024" height="3"/><rect class="c" y="83" width="1024" height="3"/><rect class="d" y="86" width="1024" height="3"/><rect class="e" y="89" width="1024" height="3"/><rect class="f" y="92" width="1024" height="11"/><rect class="g" y="103" width="1024" height="5"/><rect class="h" y="108" width="1024" height="8"/><rect class="i" y="116" width="1024" height="8"/><rect class="j" y="124" width="1024" height="9"/><rect class="k" y="63" width="1024" height="6"/><rect class="l" y="55" width="1024" height="8"/><rect class="m" y="51" width="1024" height="4"/><rect class="n" y="44" width="1024" height="7"/><rect class="o" y="35" width="1024" height="9"/><rect class="p" y="30" width="1024" height="5"/><rect class="q" y="20" width="1024" height="10"/><rect class="r" y="16" width="1024" height="4"/><rect class="s" y="10" width="1024" height="6"/><rect class="t" y="5" width="1024" height="5"/><rect class="u" width="1024" height="5"/></svg>