<svg xmlns="http://www.w3.org/2000/svg" width="1024" height="137" viewBox="0 0 1024 137"><defs><style>.a{fill:#0098be;}.b{fill:#004d6c;}.c{fill:#004f70;}.d{fill:#003f5a;}.e{fill:#001e28;}.f{fill:#00141b;}.g{fill:#001920;}.h{fill:#002530;}.i{fill:#022b35;}.j{fill:#011a20;}.k{fill:#000f12;}.l{fill:#001c21;}.m{fill:#001214;}.n{fill:#010407;}.o{fill:#000d0f;}.p{fill:#005d7d;}.q{fill:#00293a;}.r{fill:#003e56;}.s{fill:#012732;}.t{fill:#002c39;}.u{fill:#012635;}.v{fill:#00212b;}.w{fill:#012831;}.x{fill:#012025;}.y{fill:#001113;}</style></defs><title>bg06</title><rect class="a" y="72" width="1024" height="9"/><rect class="b" y="69" width="1024" height="3"/><rect class="c" y="65" width="1024" height="4"/><rect class="d" y="61" width="1024" height="4"/><rect class="e" y="53" width="1024" height="8"/><rect class="f" y="50" width="1024" height="3"/><rect class="g" y="43" width="1024" height="7"/><rect class="h" y="36" width="1024" height="7"/><rect class="i" y="33" width="1024" height="3"/><rect class="j" y="26" width="1024" height="7"/><rect class="k" y="20" width="1024" height="6"/><rect class="l" y="17" width="1024" height="3"/><rect class="m" y="13" width="1024" height="4"/><rect class="n" y="7" width="1024" height="6"/><rect class="o" width="1024" height="7"/><rect class="p" y="81" width="1024" height="2"/><rect class="q" y="83" width="1024" height="3"/><rect class="r" y="86" width="1024" height="3"/><rect class="s" y="89" width="1024" height="3"/><rect class="t" y="92" width="1024" height="5"/><rect class="u" y="97" width="1024" height="7"/><rect class="v" y="104" width="1024" height="4"/><rect class="w" y="108" width="1024" height="10"/><rect class="x" y="118" width="1024" height="9"/><rect class="y" y="127" width="1024" height="10"/></svg>