<svg xmlns="http://www.w3.org/2000/svg" width="1024" height="133" viewBox="0 0 1024 133"><defs><style>.a{fill:#02c7ec;}.b{fill:#01749a;}.c{fill:#007ea4;}.d{fill:#00688b;}.e{fill:#003c53;}.f{fill:#012e3a;}.g{fill:#00212b;}.h{fill:#012e3b;}.i{fill:#003545;}.j{fill:#004d69;}.k{fill:#003442;}.l{fill:#00222b;}.m{fill:#011216;}.n{fill:#011b23;}.o{fill:#011015;}.p{fill:#020f15;}.q{fill:#01060c;}.r{fill:#011217;}.s{fill:#0d8baa;}.t{fill:#004d6c;}.u{fill:#017494;}.v{fill:#00496a;}.w{fill:#014f71;}.x{fill:#015575;}.y{fill:#014a69;}.z{fill:#024059;}.aa{fill:#005a7c;}.ab{fill:#013c4d;}.ac{fill:#00232f;}</style></defs><title>bg07</title><rect class="a" y="71" width="1024" height="9"/><rect class="b" y="68" width="1024" height="3"/><rect class="c" y="65" width="1024" height="3"/><rect class="d" y="62" width="1024" height="3"/><rect class="e" y="57" width="1024" height="5"/><rect class="f" y="53" width="1024" height="4"/><rect class="g" y="49" width="1024" height="4"/><rect class="h" y="42" width="1024" height="7"/><rect class="i" y="35" width="1024" height="7"/><rect class="j" y="31" width="1024" height="4"/><rect class="k" y="26" width="1024" height="5"/><rect class="l" y="21" width="1024" height="5"/><rect class="m" y="17" width="1024" height="4"/><rect class="n" y="13" width="1024" height="4"/><rect class="o" y="10" width="1024" height="3"/><rect class="p" y="7" width="1024" height="3"/><rect class="q" y="4" width="1024" height="3"/><rect class="r" width="1024" height="4"/><rect class="s" y="80" width="1024" height="3"/><rect class="t" y="83" width="1024" height="2"/><rect class="u" y="85" width="1024" height="3"/><rect class="v" y="88" width="1024" height="2"/><rect class="w" y="90" width="1024" height="3"/><rect class="x" y="93" width="1024" height="4"/><rect class="y" y="97" width="1024" height="6"/><rect class="z" y="103" width="1024" height="4"/><rect class="aa" y="107" width="1024" height="9"/><rect class="ab" y="116" width="1024" height="7"/><rect class="ac" y="123" width="1024" height="10"/></svg>