<svg xmlns="http://www.w3.org/2000/svg" width="1024" height="131" viewBox="0 0 1024 131"><defs><style>.a{fill:#01c7e7;}.b{fill:#0088a6;}.c{fill:#0093b1;}.d{fill:#00799a;}.e{fill:#005472;}.f{fill:#01394c;}.g{fill:#00445d;}.h{fill:#003643;}.i{fill:#012e3c;}.j{fill:#043b51;}.k{fill:#012129;}.l{fill:#000b0c;}.m{fill:#01141a;}.n{fill:#000d0e;}.o{fill:#020305;}.p{fill:#000b0d;}.q{fill:#00445b;}.r{fill:#00b2cc;}.s{fill:#027897;}.t{fill:#0099b3;}.u{fill:#027d99;}.v{fill:#004058;}.w{fill:#00374b;}.x{fill:#002631;}.y{fill:#00151a;}</style></defs><title>bg08</title><rect class="a" y="70" width="1024" height="12"/><rect class="b" y="67" width="1024" height="3"/><rect class="c" y="64" width="1024" height="3"/><rect class="d" y="60" width="1024" height="4"/><rect class="e" y="54" width="1024" height="6"/><rect class="f" y="51" width="1024" height="3"/><rect class="g" y="44" width="1024" height="7"/><rect class="h" y="40" width="1024" height="4"/><rect class="i" y="35" width="1024" height="5"/><rect class="j" y="29" width="1024" height="6"/><rect class="k" y="25" width="1024" height="4"/><rect class="l" y="17" width="1024" height="8"/><rect class="m" y="13" width="1024" height="4"/><rect class="n" y="9" width="1024" height="4"/><rect class="o" y="3" width="1024" height="6"/><rect class="p" width="1024" height="3"/><rect class="q" y="82" width="1024" height="3"/><rect class="r" y="85" width="1024" height="3"/><rect class="s" y="88" width="1024" height="3"/><rect class="t" y="91" width="1024" height="6"/><rect class="u" y="97" width="1024" height="6"/><rect class="v" y="103" width="1024" height="3"/><rect class="w" y="106" width="1024" height="9"/><rect class="x" y="115" width="1024" height="8"/><rect class="y" y="123" width="1024" height="8"/></svg>