<svg xmlns="http://www.w3.org/2000/svg" width="1024" height="130" viewBox="0 0 1024 130"><defs><style>.a{fill:#00abcb;}.b{fill:#007b9c;}.c{fill:#015778;}.d{fill:#027195;}.e{fill:#024059;}.f{fill:#012a37;}.g{fill:#013f54;}.h{fill:#00374b;}.i{fill:#023d51;}.j{fill:#00262d;}.k{fill:#002836;}.l{fill:#011113;}.m{fill:#010a0d;}.n{fill:#023644;}.o{fill:#086382;}.p{fill:#004d6b;}.q{fill:#007493;}.r{fill:#005c78;}.s{fill:#00394c;}.t{fill:#006c8a;}.u{fill:#004e6a;}.v{fill:#00303d;}.w{fill:#01313f;}.x{fill:#001215;}</style></defs><title>bg09</title><rect class="a" y="74" width="1024" height="5"/><rect class="b" y="70" width="1024" height="4"/><rect class="c" y="66" width="1024" height="4"/><rect class="d" y="61" width="1024" height="5"/><rect class="e" y="52" width="1024" height="9"/><rect class="f" y="48" width="1024" height="4"/><rect class="g" y="36" width="1024" height="12"/><rect class="h" y="32" width="1024" height="4"/><rect class="i" y="29" width="1024" height="3"/><rect class="j" y="24" width="1024" height="5"/><rect class="k" y="18" width="1024" height="6"/><rect class="l" y="14" width="1024" height="4"/><rect class="m" width="1024" height="14"/><rect class="n" y="79" width="1024" height="3"/><rect class="o" y="82" width="1024" height="5"/><rect class="p" y="87" width="1024" height="3"/><rect class="q" y="90" width="1024" height="10"/><rect class="r" y="100" width="1024" height="2"/><rect class="s" y="102" width="1024" height="4"/><rect class="t" y="106" width="1024" height="5"/><rect class="u" y="111" width="1024" height="5"/><rect class="v" y="116" width="1024" height="3"/><rect class="w" y="119" width="1024" height="5"/><rect class="x" y="124" width="1024" height="6"/></svg>